<svg xmlns="http://www.w3.org/2000/svg" width="501" height="441" viewBox="0 0 501 441">
    <path fill="none" fill-rule="evenodd" stroke="#FFF" stroke-linecap="round" stroke-width="2" d="M425.628 37.61l113.407 240.5M380.423 502.502l158.612-224.394m-112.162 6.655l112.162-6.655M380.423 502.503l46.45-217.739m-1.245-247.155l1.245 247.155M191.199 113.996l235.674 170.768M164.666 402.467l262.207-117.703M191.199 113.996l-26.533 288.47m215.757 100.037L164.666 402.467m-48.43 67.024l264.187 33.012M164.666 402.467l-48.43 67.024M1.444 230.925l163.222 171.542m26.533-288.471l234.429-76.387M160.875 1.935l264.753 35.674m-234.429 76.387L160.875 1.935m0 0L1.445 230.925m189.754-116.93L1.444 230.926M116.236 469.49L1.444 230.925" opacity=".33"/>
</svg>
