<svg xmlns="http://www.w3.org/2000/svg" width="692" height="525" viewBox="0 0 692 525">
    <path fill="none" fill-rule="evenodd" stroke="#E78300" stroke-linecap="round" d="M570.045 616.36l-382.306 104.2m-288.276-290.847L187.74 720.56m19.258-166.331L187.74 720.56m-288.276-290.847l307.534 124.516m363.048 62.13l-363.048-62.13m311.608-301.685L206.997 554.23M102.11 138.953L206.997 554.23m311.608-301.685L102.11 138.954m-202.647 290.759l202.647-290.76m-85.833-88.42l-116.814 379.18m202.647-290.76l-85.833-88.42M396.103-56.2L102.11 138.953m416.495 113.591l51.44 363.815m120.868-379.32L570.045 616.36m-51.44-363.815l172.308-15.504m0 0L396.103-56.2m122.502 308.744L396.103-56.2M16.277 50.534L396.103-56.2" opacity=".33"/>
</svg>
