<svg xmlns="http://www.w3.org/2000/svg" width="615" height="50" viewBox="0 0 615 50">
    <path fill="none" fill-rule="evenodd" stroke="#E78300" stroke-linecap="round" d="M505.737 174.739l-396.159 8.617m-209.35-351.948l209.35 351.948m58.926-156.732l-58.926 156.732m-209.35-351.948L168.504 26.624M505.737 174.74L168.504 26.624m375.335-217.338L168.504 26.624m-1.308-428.314l1.308 428.314m375.335-217.338L167.196-401.69M-99.772-168.592L167.196-401.69m-61.892-106.558L-99.772-168.592M167.196-401.69l-61.892-106.558m394.365-11.675L167.196-401.69M543.84-190.714L505.737 174.74M714.78-164.073L505.737 174.739m38.102-365.453l170.941 26.64m0 0L499.67-519.922m44.17 329.21l-44.17-329.21m-394.365 11.675l394.365-11.675" opacity=".33"/>
</svg>
