<svg xmlns="http://www.w3.org/2000/svg" width="794" height="250" viewBox="0 0 794 250">
    <path fill="none" fill-rule="evenodd" stroke="#1A2052" stroke-linecap="round" d="M671.725 437.609L289.42 541.81M1.143 250.962L289.42 541.81m19.258-166.332L289.42 541.81M1.143 250.962l307.534 124.516m363.048 62.13l-363.048-62.13M620.285 73.794L308.677 375.478M203.79-39.797l104.887 415.275M620.285 73.794L203.79-39.797M1.143 250.963L203.79-39.798m-85.833-88.42L1.143 250.963M203.79-39.798l-85.833-88.42M497.784-234.95L203.79-39.797M620.285 73.794l51.44 363.815m120.868-379.32L671.725 437.61m-51.44-363.815l172.308-15.505m0 0l-294.81-293.24M620.286 73.795L497.784-234.95M117.957-128.217L497.784-234.95" opacity=".5"/>
</svg>
