<?xml version="1.0" encoding="utf-8"?>
<!-- Generator: Adobe Illustrator 16.0.0, SVG Export Plug-In . SVG Version: 6.00 Build 0)  -->
<!DOCTYPE svg PUBLIC "-//W3C//DTD SVG 1.1//EN" "http://www.w3.org/Graphics/SVG/1.1/DTD/svg11.dtd">
<svg version="1.1" id="Calque_1" xmlns="http://www.w3.org/2000/svg" xmlns:xlink="http://www.w3.org/1999/xlink" x="0px" y="0px"
	 width="50px" height="50px" viewBox="0 0 50 50" enable-background="new 0 0 50 50" xml:space="preserve">
<g>
	<g>
		<path id="a_1_" fill="#FFFFFF" d="M31.666,25c0-3.672-2.994-6.666-6.666-6.666S18.334,21.328,18.334,25s2.994,6.666,6.666,6.666
			S31.666,28.672,31.666,25z M35.26,25c0,5.677-4.583,10.26-10.26,10.26c-5.659,0.008-10.252-4.573-10.26-10.232
			c0-0.009,0-0.019,0-0.028c0-5.677,4.583-10.26,10.26-10.26S35.26,19.323,35.26,25L35.26,25z M38.072,14.324
			c0.002,1.32-1.065,2.392-2.385,2.395c-0.004,0-0.008,0-0.012,0c-1.32,0.003-2.393-1.065-2.395-2.385c0-0.003,0-0.007,0-0.01
			c-0.004-1.32,1.064-2.393,2.384-2.396c0.003,0,0.007,0,0.011,0c1.32-0.003,2.393,1.064,2.396,2.384
			C38.072,14.316,38.072,14.32,38.072,14.324z M25,8.595c-2.916,0-9.166-0.234-11.796,0.807c-0.864,0.332-1.646,0.847-2.291,1.51
			c-0.664,0.646-1.179,1.428-1.51,2.292C8.361,15.834,8.595,22.084,8.595,25s-0.234,9.166,0.807,11.796
			c0.332,0.864,0.847,1.646,1.51,2.291c0.646,0.663,1.428,1.179,2.292,1.511c2.63,1.041,8.88,0.807,11.796,0.807
			s9.166,0.234,11.796-0.807c0.864-0.331,1.646-0.847,2.291-1.51c0.663-0.646,1.179-1.428,1.511-2.292
			c1.041-2.63,0.807-8.88,0.807-11.796s0.234-9.166-0.807-11.796c-0.331-0.864-0.847-1.646-1.51-2.291
			c-0.646-0.664-1.428-1.179-2.292-1.51C34.166,8.361,27.916,8.595,25,8.595z M44.998,25c0,2.76,0.025,5.494-0.13,8.255
			c-0.156,3.202-0.886,6.04-3.229,8.384c-2.343,2.344-5.182,3.073-8.384,3.23c-2.76,0.154-5.495,0.13-8.255,0.13
			s-5.494,0.024-8.255-0.13c-3.202-0.157-6.04-0.887-8.384-3.23c-2.344-2.343-3.073-5.182-3.23-8.384
			c-0.155-2.76-0.13-5.495-0.13-8.255s-0.025-5.494,0.13-8.255c0.157-3.202,0.886-6.04,3.23-8.384
			c2.343-2.344,5.182-3.073,8.384-3.23c2.76-0.155,5.495-0.13,8.255-0.13s5.494-0.025,8.255,0.13c3.202,0.157,6.04,0.886,8.384,3.23
			c2.344,2.343,3.073,5.182,3.23,8.384C45.023,19.505,44.999,22.24,44.998,25L44.998,25z"/>
	</g>
</g>
</svg>
