<svg xmlns="http://www.w3.org/2000/svg" xmlns:xlink="http://www.w3.org/1999/xlink" width="50" height="50" viewBox="0 0 50 50">
    <defs>
        <path id="a" d="M31.666 25c0-3.672-2.994-6.666-6.666-6.666S18.334 21.328 18.334 25s2.994 6.666 6.666 6.666 6.666-2.994 6.666-6.666zm3.594 0c0 5.677-4.583 10.26-10.26 10.26A10.246 10.246 0 0 1 14.74 25c0-5.677 4.583-10.26 10.26-10.26S35.26 19.323 35.26 25zm2.812-10.676a2.39 2.39 0 0 1-2.396 2.395 2.39 2.39 0 0 1-2.395-2.395 2.39 2.39 0 0 1 2.395-2.396 2.39 2.39 0 0 1 2.396 2.396zM25 8.595c-2.916 0-9.166-.234-11.796.807a6.394 6.394 0 0 0-2.291 1.51 6.394 6.394 0 0 0-1.51 2.292c-1.042 2.63-.808 8.88-.808 11.796 0 2.916-.234 9.166.807 11.796a6.394 6.394 0 0 0 1.51 2.291 6.394 6.394 0 0 0 2.292 1.51c2.63 1.042 8.88.808 11.796.808 2.916 0 9.166.234 11.796-.807a6.394 6.394 0 0 0 2.291-1.51 6.394 6.394 0 0 0 1.51-2.292c1.042-2.63.808-8.88.808-11.796 0-2.916.234-9.166-.807-11.796a6.394 6.394 0 0 0-1.51-2.291 6.394 6.394 0 0 0-2.292-1.51c-2.63-1.042-8.88-.808-11.796-.808zM44.998 25c0 2.76.026 5.494-.13 8.255-.156 3.202-.885 6.04-3.229 8.384-2.343 2.344-5.182 3.073-8.384 3.23-2.76.155-5.495.13-8.255.13-2.76 0-5.494.025-8.255-.13-3.202-.157-6.04-.886-8.384-3.23-2.344-2.343-3.073-5.182-3.23-8.384-.155-2.76-.13-5.495-.13-8.255 0-2.76-.025-5.494.13-8.255.157-3.202.886-6.04 3.23-8.384 2.343-2.344 5.182-3.073 8.384-3.23 2.76-.155 5.495-.13 8.255-.13 2.76 0 5.494-.025 8.255.13 3.202.157 6.04.886 8.384 3.23 2.344 2.343 3.073 5.182 3.23 8.384.155 2.76.13 5.495.13 8.255z"/>
    </defs>
    <g fill="none" fill-rule="evenodd">
        <mask id="b" fill="#fff">
            <use xlink:href="#a"/>
        </mask>
        <use fill="#000" fill-rule="nonzero" xlink:href="#a"/>
        <g fill="#3C3C3C" mask="url(#b)">
            <path d="M0 0h50v50H0z"/>
        </g>
    </g>
</svg>
