<svg xmlns="http://www.w3.org/2000/svg" width="30" height="32" viewBox="0 0 30 32">
    <path fill="none" fill-rule="evenodd" stroke="#1A2052" stroke-linecap="round" d="M2.49 7.703L15.82 1m12.957 8.297L15.819 1m.596 6.16L15.819 1m12.958 8.297L16.415 7.16m-13.926.544l13.926-.544m-9.16 13.298l9.16-13.298m7.149 14.203L16.414 7.16M7.256 20.457l16.309.905m5.213-12.065l-5.213 12.065m3.872 2.537l1.34-14.602m-5.212 12.065l3.872 2.537m-13.218 6.775l9.346-9.312m-16.309-.905L2.49 7.703M1 22.34L2.49 7.703m4.765 12.754L1 22.34m0 0l13.218 8.333M7.255 20.457l6.963 10.217m13.218-6.775l-13.218 6.775"/>
</svg>
