<?xml version="1.0" encoding="utf-8"?>
<!-- Generator: Adobe Illustrator 16.0.0, SVG Export Plug-In . SVG Version: 6.00 Build 0)  -->
<!DOCTYPE svg PUBLIC "-//W3C//DTD SVG 1.1//EN" "http://www.w3.org/Graphics/SVG/1.1/DTD/svg11.dtd">
<svg version="1.1" id="Calque_1" xmlns="http://www.w3.org/2000/svg" xmlns:xlink="http://www.w3.org/1999/xlink" x="0px" y="0px"
	 width="50px" height="50px" viewBox="0 0 50 50" enable-background="new 0 0 50 50" xml:space="preserve">
<g>
	<g>
		<path id="a_1_" fill="#FFFFFF" d="M45,12.858c-1.123,1.634-2.513,3.067-4.111,4.238c0.025,0.356,0.025,0.711,0.025,1.066
			c0,10.838-8.249,23.324-23.325,23.324c-4.645,0-8.96-1.344-12.589-3.68c0.66,0.076,1.294,0.103,1.98,0.103
			c3.832,0,7.36-1.295,10.177-3.503c-3.507-0.064-6.586-2.348-7.665-5.686c0.508,0.076,1.016,0.127,1.549,0.127
			c0.736,0,1.472-0.102,2.157-0.279c-3.828-0.774-6.578-4.14-6.574-8.045v-0.102c1.092,0.61,2.36,0.99,3.706,1.04
			c-2.285-1.52-3.657-4.082-3.655-6.826c0-1.523,0.406-2.92,1.117-4.138c4.164,5.126,10.308,8.245,16.903,8.58
			c-0.131-0.618-0.2-1.248-0.203-1.879C24.49,12.672,28.156,9.002,32.682,9c0.003,0,0.006,0,0.008,0c2.36,0,4.494,0.99,5.99,2.589
			c1.836-0.354,3.597-1.023,5.203-1.98c-0.611,1.895-1.893,3.501-3.604,4.518C41.93,13.949,43.527,13.492,45,12.858L45,12.858z"/>
	</g>
</g>
</svg>
