<svg xmlns="http://www.w3.org/2000/svg" xmlns:xlink="http://www.w3.org/1999/xlink" width="50" height="50" viewBox="0 0 50 50">
    <defs>
        <path id="a" d="M45 12.858a17.624 17.624 0 0 1-4.112 4.238c.026.356.026.711.026 1.066 0 10.838-8.249 23.325-23.325 23.325-4.645 0-8.96-1.345-12.589-3.68.66.076 1.294.102 1.98.102 3.832 0 7.36-1.295 10.177-3.503a8.212 8.212 0 0 1-7.665-5.685c.508.076 1.016.127 1.549.127.736 0 1.472-.102 2.157-.28a8.199 8.199 0 0 1-6.574-8.045v-.102c1.092.61 2.36.99 3.706 1.04a8.192 8.192 0 0 1-3.655-6.826c0-1.523.406-2.92 1.117-4.138a23.302 23.302 0 0 0 16.903 8.58 9.253 9.253 0 0 1-.203-1.879A8.194 8.194 0 0 1 32.69 9c2.36 0 4.493.99 5.99 2.589a16.139 16.139 0 0 0 5.203-1.98 8.176 8.176 0 0 1-3.604 4.518c1.65-.178 3.249-.635 4.721-1.27z"/>
    </defs>
    <g fill="none" fill-rule="evenodd">
        <mask id="b" fill="#fff">
            <use xlink:href="#a"/>
        </mask>
        <use fill="#000" fill-rule="nonzero" xlink:href="#a"/>
        <g fill="#3C3C3C" mask="url(#b)">
            <path d="M0 0h50v50H0z"/>
        </g>
    </g>
</svg>
