<svg xmlns="http://www.w3.org/2000/svg" width="151" height="166" viewBox="0 0 151 166">
    <path fill="none" fill-rule="evenodd" stroke="#FFF" stroke-linecap="round" d="M8.979 38.09L80.389 1m69.414 45.91L80.388 1m3.192 34.082L80.388 1m69.415 45.91L83.58 35.083M8.979 38.09l74.6-3.007M34.512 108.66L83.58 35.082m38.298 78.59L83.58 35.081M34.51 108.66l87.368 5.012m27.925-66.76l-27.925 66.76m20.744 14.034l7.181-80.794m-27.925 66.76l20.744 14.034m-70.81 37.49l50.066-51.524M34.51 108.66L8.979 38.09M1 119.085l7.979-80.996m25.532 70.57L1 119.085m0 0l70.811 46.11m-37.3-56.536l37.3 56.537m70.811-37.49l-70.81 37.49"/>
</svg>
